<svg xmlns="http://www.w3.org/2000/svg" width="430" height="430" style="width:100%;height:100%;transform:translate3d(0,0,0);content-visibility:visible" viewBox="0 0 430 430"><defs><clipPath id="q"><path d="M0 0h430v430H0z"/></clipPath><clipPath id="z"><path d="M0 0h430v430H0z"/></clipPath><clipPath id="m"><path d="M0 0h430v430H0z"/></clipPath><clipPath id="E"><path d="M0 0h430v430H0z"/></clipPath><clipPath id="D"><path d="M0 0h430v430H0z"/></clipPath><clipPath id="n"><path d="M0 0h430v430H0z"/></clipPath><clipPath id="B"><path d="M0 0h430v430H0z"/></clipPath><clipPath id="A"><path d="M0 0h430v430H0z"/></clipPath><clipPath id="v"><path d="M0 0h430v430H0z"/></clipPath><clipPath id="o"><path d="M0 0h430v430H0z"/></clipPath><clipPath id="y"><path d="M0 0h430v430H0z"/></clipPath><clipPath id="w"><path d="M0 0h430v430H0z"/></clipPath><clipPath id="r"><path d="M0 0h430v430H0z"/></clipPath><clipPath id="p"><path d="M0 0h430v430H0z"/></clipPath><clipPath id="t"><path d="M0 0h430v430H0z"/></clipPath><clipPath id="s"><path d="M0 0h430v430H0z"/></clipPath><filter id="a" width="100%" height="100%" x="0%" y="0%" filterUnits="objectBoundingBox"><feComponentTransfer in="SourceGraphic"><feFuncA tableValues="1.0 0.0" type="table"/></feComponentTransfer></filter><filter id="d" width="100%" height="100%" x="0%" y="0%" filterUnits="objectBoundingBox"><feComponentTransfer in="SourceGraphic"><feFuncA tableValues="1.0 0.0" type="table"/></feComponentTransfer></filter><filter id="g" width="100%" height="100%" x="0%" y="0%" filterUnits="objectBoundingBox"><feComponentTransfer in="SourceGraphic"><feFuncA tableValues="1.0 0.0" type="table"/></feComponentTransfer></filter><filter id="j" width="100%" height="100%" x="0%" y="0%" filterUnits="objectBoundingBox"><feComponentTransfer in="SourceGraphic"><feFuncA tableValues="1.0 0.0" type="table"/></feComponentTransfer></filter><mask id="F" mask-type="alpha"><g filter="url(#a)"><path fill="#fff" d="M0 0h430v430H0z" opacity="0"/><use xmlns:ns1="http://www.w3.org/1999/xlink" ns1:href="#b"/></g></mask><mask id="C" mask-type="alpha"><g filter="url(#d)"><path fill="#fff" d="M0 0h430v430H0z" opacity="0"/><use xmlns:ns2="http://www.w3.org/1999/xlink" ns2:href="#e"/></g></mask><mask id="x" mask-type="alpha"><g filter="url(#g)"><path fill="#fff" d="M0 0h430v430H0z" opacity="0"/><use xmlns:ns3="http://www.w3.org/1999/xlink" ns3:href="#h"/></g></mask><mask id="u" mask-type="alpha"><g filter="url(#j)"><path fill="#fff" d="M0 0h430v430H0z" opacity="0"/><use xmlns:ns4="http://www.w3.org/1999/xlink" ns4:href="#k"/></g></mask><g id="b" clip-path="url(#m)" style="mix-blend-mode:multiply;display:none"><path class="secondary" style="display:none"/><path class="secondary" style="display:none"/><path class="secondary" style="display:none"/><path class="secondary" style="display:none"/><path class="secondary" style="display:none"/><path class="secondary" style="display:none"/><path class="secondary" style="display:none"/></g><g id="e" clip-path="url(#n)" style="display:none"><path class="primary"/><path class="primary"/></g><g id="h" clip-path="url(#o)" style="display:block" transform="translate(10.5 18)"><g fill="#FFC738" style="display:block"><path d="M189.901 196.066c0 41.937 33.997 75.934 75.934 75.934s75.934-33.997 75.934-75.934-33.997-75.934-75.934-75.934-75.934 33.997-75.934 75.934" class="primary"/><path d="M189.901 196.066c0 41.937 33.997 75.934 75.934 75.934s75.934-33.997 75.934-75.934-33.997-75.934-75.934-75.934-75.934 33.997-75.934 75.934" class="primary"/></g></g><g id="k" clip-path="url(#p)" style="display:none"><path class="primary"/><path class="primary"/></g></defs><g clip-path="url(#q)"><g clip-path="url(#r)" style="display:none"><g clip-path="url(#s)" style="display:none"><path class="primary" style="display:none"/><path fill="none" class="primary" style="display:none"/><path fill="none" class="primary" style="display:none"/><path fill="none" class="primary" style="display:none"/><path fill="none" class="primary" style="display:none"/><path fill="none" class="primary" style="display:none"/><path fill="none" class="primary" style="display:none"/></g><g style="mix-blend-mode:multiply;display:none"><g clip-path="url(#t)" mask="url(#u)" style="display:none"><path class="primary"/><path class="primary"/></g></g><g style="display:none"><path class="secondary"/><path class="secondary" style="mix-blend-mode:multiply"/></g></g><g clip-path="url(#v)" style="display:block"><g clip-path="url(#w)" style="display:block" transform="translate(-10 23)"><g fill="#FFC738" style="display:block"><path d="M189.901 196.066c0 41.937 33.997 75.934 75.934 75.934s75.934-33.997 75.934-75.934-33.997-75.934-75.934-75.934-75.934 33.997-75.934 75.934" class="primary"/><path d="M189.901 196.066c0 41.937 33.997 75.934 75.934 75.934s75.934-33.997 75.934-75.934-33.997-75.934-75.934-75.934-75.934 33.997-75.934 75.934" class="primary"/></g><path fill="none" stroke="#FFC738" stroke-linecap="round" stroke-linejoin="round" stroke-width="7" d="M-16.939 0h33.878" class="primary" style="display:block" transform="rotate(45 -165.864 568.869)"/><path fill="none" stroke="#FFC738" stroke-linecap="round" stroke-linejoin="round" stroke-width="7" d="M-16.939 0h33.878" class="primary" style="display:block" transform="translate(390.053 196.066)"/><path fill="none" stroke="#FFC738" stroke-linecap="round" stroke-linejoin="round" stroke-width="7" d="M-16.939 0h33.878" class="primary" style="display:block" transform="rotate(-45 307.481 -372.803)"/><path fill="none" stroke="#FFC738" stroke-linecap="round" stroke-linejoin="round" stroke-width="7" d="M-16.939 0h33.878" class="primary" style="display:block" transform="rotate(-90 168.841 -96.993)"/><path fill="none" stroke="#FFC738" stroke-linecap="round" stroke-linejoin="round" stroke-width="7" d="M-16.939 0h33.878" class="primary" style="display:block" transform="rotate(-135 111.415 17.25)"/><path fill="none" stroke="#FFC738" stroke-linecap="round" stroke-linejoin="round" stroke-width="7" d="M-16.939 0h33.878" class="primary" style="display:block" transform="rotate(180 70.808 98.033)"/></g><g mask="url(#x)" style="mix-blend-mode:multiply;display:block"><g clip-path="url(#y)" opacity=".5" transform="translate(-10 23)"><g fill="#FFC738" opacity="1" style="display:block"><path d="M189.901 196.066c0 41.937 33.997 75.934 75.934 75.934s75.934-33.997 75.934-75.934-33.997-75.934-75.934-75.934-75.934 33.997-75.934 75.934" class="primary"/><path d="M189.901 196.066c0 41.937 33.997 75.934 75.934 75.934s75.934-33.997 75.934-75.934-33.997-75.934-75.934-75.934-75.934 33.997-75.934 75.934" class="primary" opacity="1"/></g></g></g><g style="display:block"><path fill="#4BB3FD" d="M246.2 231.901c.325.684.896 1.22 1.6 1.5a60.585 60.585 0 0 1 37.98 55.99c.13 33.46-28.02 60.83-61.48 60.83H82c-28 0-51.15-22.44-51-50.35a50 50 0 0 1 24-42.5 3 3 0 0 0 1.36-2.75c-1.36-16.94 13.72-31.4 30.47-28.75a2.995 2.995 0 0 0 3-1.42c15.55-25.59 44.18-43.29 76.27-43.29a88.56 88.56 0 0 1 80.1 50.74" class="secondary"/><g opacity=".5" style="mix-blend-mode:multiply"><path fill="#4BB3FD" d="M105.859 276.577a50 50 0 0 0-6.4 24.524 50.07 50.07 0 0 0 40.34 49.12H82c-27.74 0-51.15-22.66-51-50.35a50 50 0 0 1 24-42.5 3 3 0 0 0 1.36-2.75c-1.36-16.94 13.72-31.4 30.42-28.75a3 3 0 0 0 3-1.42c15.55-25.59 44.18-43.29 76.27-43.29a88.2 88.2 0 0 1 35.541 7.43 91 91 0 0 0-43.29 36.81 3 3 0 0 1-3 1.43c-16.7-2.65-31.73 11.77-30.43 28.69a3 3 0 0 1-1.41 2.82 50 50 0 0 0-17.601 18.236" class="secondary" opacity="1"/></g></g></g><g clip-path="url(#z)" style="display:none"><g clip-path="url(#A)" style="display:none"><g style="display:none"><path class="primary"/><path class="primary"/></g><path fill="none" class="primary" style="display:none"/><path fill="none" class="primary" style="display:none"/><path fill="none" class="primary" style="display:none"/><path fill="none" class="primary" style="display:none"/><path fill="none" class="primary" style="display:none"/><path fill="none" class="primary" style="display:none"/></g><g style="mix-blend-mode:multiply;display:none"><g clip-path="url(#B)" mask="url(#C)" style="display:none"><path class="primary"/><path class="primary"/></g></g><g clip-path="url(#D)" style="display:none"><path class="secondary" style="display:none"/><path class="secondary" style="display:none"/><path class="secondary" style="display:none"/><path class="secondary" style="display:none"/><path class="secondary" style="display:none"/><path class="secondary" style="display:none"/><path class="secondary" style="display:none"/></g><g clip-path="url(#E)" mask="url(#F)" style="mix-blend-mode:multiply;display:none"><path class="secondary" style="display:none"/><path class="secondary" style="display:none"/><path class="secondary" style="display:none"/><path class="secondary" style="display:none"/><path class="secondary" style="display:none"/><path class="secondary" style="display:none"/><path class="secondary" style="display:none"/></g></g></g></svg>